<svg xmlns="http://www.w3.org/2000/svg" viewBox="0 0 49.3 45.88" id="apps">
  <g>
    <g>
      <rect width="16.8" height="16.8" x="1.54" y="1.54" fill="transparent" rx="4.15"></rect>
      <rect width="16.9" height="16.9" x="30.9" y="1.49" fill="transparent" rx="4.17"></rect>
      <rect width="16.39" height="16.39" x="1.75" y="27.74" fill="transparent" rx="4.04"></rect>
      <rect width="16.85" height="16.85" x="30.93" y="27.51" fill="transparent" rx="4.16"></rect>
      <path fill="#0379d4" d="M15 3a1.92 1.92 0 0 1 1.91 1.91V15A1.92 1.92 0 0 1 15 16.89H4.91A1.92 1.92 0 0 1 3 15V4.91A1.92 1.92 0 0 1 4.91 3H15m0-3H4.91A4.91 4.91 0 0 0 0 4.91V15a4.91 4.91 0 0 0 4.91 4.91H15A4.91 4.91 0 0 0 19.89 15V4.91A4.91 4.91 0 0 0 15 0Z"></path>
      <path fill="currentColor" d="M44.39 3a1.92 1.92 0 0 1 1.91 1.91V15a1.92 1.92 0 0 1-1.91 1.91H34.32A1.92 1.92 0 0 1 32.41 15V4.91A1.92 1.92 0 0 1 34.32 3h10.07m0-3H34.32a4.91 4.91 0 0 0-4.91 4.91V15a4.91 4.91 0 0 0 4.91 4.91h10.07A4.91 4.91 0 0 0 49.3 15V4.91A4.91 4.91 0 0 0 44.39 0Z"></path>
      <path fill="currentColor" d="M15 29a1.92 1.92 0 0 1 1.91 1.91V41A1.91 1.91 0 0 1 15 42.88H4.91A1.91 1.91 0 0 1 3 41V30.9A1.92 1.92 0 0 1 4.91 29H15m0-3H4.91A4.91 4.91 0 0 0 0 30.9V41a4.9 4.9 0 0 0 4.91 4.9H15a4.9 4.9 0 0 0 4.89-4.9V30.9A4.91 4.91 0 0 0 15 26Z"></path>
      <path fill="#0379d4" d="M44.39 29a1.92 1.92 0 0 1 1.91 1.9V41a1.91 1.91 0 0 1-1.91 1.9H34.32a1.91 1.91 0 0 1-1.91-1.9V30.9a1.92 1.92 0 0 1 1.91-1.9h10.07m0-3H34.32a4.91 4.91 0 0 0-4.91 4.91V41a4.9 4.9 0 0 0 4.91 4.9h10.07A4.9 4.9 0 0 0 49.3 41V30.9a4.91 4.91 0 0 0-4.91-4.9Z"></path>
    </g>
  </g>
</svg>
