<svg xmlns="http://www.w3.org/2000/svg" viewBox="0 0 49.17 39.32" id="folder">
  <g>
    <g>
      <path fill="#fafafa" d="M2.69 3.13h16.15l4.72 4.72h21.45l1.59 1.72v25.6l-1.08 1.21H3.33l-1.15-1.91.56-31.26"></path>
      <path fill="#0078d4" d="m18 4 3.75 3.75 1.17 1.17h21.32a.93.93 0 0 1 .93.91v24.56a.94.94 0 0 1-.92.93H4.93a.93.93 0 0 1-.93-.91V4.91A.91.91 0 0 1 4.92 4H18m1.65-4H4.92A4.92 4.92 0 0 0 0 4.92v29.49a4.93 4.93 0 0 0 4.91 4.91h39.34a4.93 4.93 0 0 0 4.92-4.91V9.83a4.93 4.93 0 0 0-4.92-4.91H24.59L19.66 0Z"></path>
    </g>
  </g>
</svg>
