<svg xmlns="http://www.w3.org/2000/svg" viewBox="0 0 50.89 50.89" id="hide">
  <g>
    <g>
      <path fill="#fff" d="M29.7 35.67s9.82-1.92 14.45-11.28v-2l-4-5.55-7.31-4.06-5.64-1.88-5.08 1.55-.89.74s-4.52-.06-10.89 6L5.61 24v1.11l2.3 4.13 3.52 3.22 6 3.72L29 37.32Z"></path>
      <path fill="none" d="M0 0h50.89v50.89H0Zm0 0h50.89v50.89H0Zm0 0h50.89v50.89H0Zm0 0h50.89v50.89H0Z"></path>
      <path fill="#555" d="M25.45 12.72a20.72 20.72 0 0 1 18.7 11.67A20.46 20.46 0 0 1 39 31l3 3a25 25 0 0 0 6.74-9.6 25.08 25.08 0 0 0-31-14.7l3.5 3.5a21.06 21.06 0 0 1 4.21-.48Z"></path>
      <path fill="#0379d4" d="m23.18 15.14 4.39 4.39 2.71 2.71 4.39 4.39a9.85 9.85 0 0 0 .3-2.26 9.51 9.51 0 0 0-9.52-9.53 9 9 0 0 0-2.27.3Z"></path>
      <path fill="none" d="M0 0h50.89v50.89H0Z"></path>
      <path fill="#0379d4" d="M17.2 19.66a9.49 9.49 0 0 0 13.52 12.58Z"></path>
      <path fill="#555" d="m7.25 5.2-3 3L10 13.89a24.82 24.82 0 0 0-7.83 10.5 25.07 25.07 0 0 0 23.33 15.9 24.75 24.75 0 0 0 9.16-1.74l7.25 7.25 3-3Zm18.2 30.85A20.73 20.73 0 0 1 6.74 24.39 21 21 0 0 1 13 16.9l3.71 3.71L29.2 33.17l2.08 2.07a22.12 22.12 0 0 1-5.83.81Z"></path>
    </g>
  </g>
</svg>
