<svg xmlns="http://www.w3.org/2000/svg" viewBox="0 0 46.25 35.05" id="arrows">
  <g>
    <g>
      <path fill="currentColor" d="M27.73 16.16 13.81.08a.24.24 0 0 0-.37 0L.06 16a.23.23 0 0 0 0 .34L2 18a.25.25 0 0 0 .34 0l9.82-11.72a.25.25 0 0 1 .43.16v28.37a.24.24 0 0 0 .24.24H15a.24.24 0 0 0 .24-.24V6.92a.24.24 0 0 1 .43-.15l9.83 11.36a.24.24 0 0 0 .34 0l1.9-1.64a.26.26 0 0 0-.01-.33Z"></path>
      <path fill="#0078d4" d="M46.19 18.89 32.28 35a.25.25 0 0 1-.37 0L18.53 19.05a.25.25 0 0 1 0-.35l1.93-1.62a.25.25 0 0 1 .34 0l9.8 11.66a.24.24 0 0 0 .43-.16V.24A.25.25 0 0 1 31.3 0h2.13a.24.24 0 0 1 .24.24v27.89a.25.25 0 0 0 .43.16l9.83-11.36a.23.23 0 0 1 .34 0l1.9 1.65a.24.24 0 0 1 .02.31Z"></path>
    </g>
  </g>
</svg>
